<svg xmlns="http://www.w3.org/2000/svg" viewBox="0 0 400 400" fill="none">
  <!-- Enso brush stroke - matches logo -->
  <path d="M 205 45
    C 280 42, 340 75, 360 140
    C 382 210, 365 280, 310 330
    C 255 380, 175 385, 115 345
    C 55 305, 30 235, 40 165
    C 50 100, 95 55, 160 43"
    stroke="#1a1a1a"
    stroke-width="26"
    stroke-linecap="round"
    fill="none"/>
  <path d="M 205 45
    C 280 42, 340 75, 360 140
    C 382 210, 365 280, 310 330
    C 255 380, 175 385, 115 345
    C 55 305, 30 235, 40 165
    C 50 100, 95 55, 160 43"
    stroke="#2a2a2a"
    stroke-width="18"
    stroke-linecap="round"
    fill="none"
    opacity="0.3"/>
  <path d="M 160 43 C 145 45, 130 50, 125 55"
    stroke="#1a1a1a"
    stroke-width="14"
    stroke-linecap="round"
    fill="none"
    opacity="0.6"/>
</svg>
